<svg width="20" height="20" viewBox="0 0 20 20" fill="none" xmlns="http://www.w3.org/2000/svg">
<path d="M1.875 1.25C1.71224 1.25 1.56738 1.31185 1.44043 1.43555C1.31348 1.55925 1.25 1.70573 1.25 1.875V18.125C1.25 18.2943 1.31348 18.4407 1.44043 18.5645C1.56738 18.6882 1.71224 18.75 1.875 18.75H18.125C18.2878 18.75 18.4326 18.6882 18.5596 18.5645C18.6865 18.4407 18.75 18.2943 18.75 18.125V1.875C18.75 1.70573 18.6865 1.55925 18.5596 1.43555C18.4326 1.31185 18.2878 1.25 18.125 1.25H1.875ZM5.16602 5.625H8.53516L11.4648 10V5.625H14.834V14.375H11.4648L8.53516 10V14.375H5.16602V5.625Z" fill="white"/>
</svg>
