<svg width="22" height="21" viewBox="0 0 22 21" fill="none" xmlns="http://www.w3.org/2000/svg">
<path d="M2.79688 0.25H19.2031C20.471 0.25 21.5 1.29547 21.5 2.58363V13.9184C21.5 14.5373 21.258 15.1309 20.8273 15.5685C20.3965 16.0062 19.8123 16.252 19.2031 16.252H11.0801L7.70169 19.6831C7.434 19.9541 7.09337 20.1384 6.72272 20.213C6.35207 20.2875 5.96799 20.2489 5.6189 20.102C5.26981 19.9551 4.97133 19.7065 4.76109 19.3876C4.55085 19.0686 4.43826 18.6935 4.4375 18.3096V16.252H2.79688C2.18771 16.252 1.60349 16.0062 1.17274 15.5685C0.741991 15.1309 0.5 14.5373 0.5 13.9184L0.5 2.58363C0.5 1.29547 1.529 0.25 2.79688 0.25ZM2.46875 2.58363V13.9184C2.46875 14.1024 2.61575 14.2518 2.79688 14.2518H5.42188C5.68295 14.2518 5.93333 14.3572 6.11793 14.5447C6.30254 14.7323 6.40625 14.9867 6.40625 15.2519V18.1723L9.97625 14.5452C10.1607 14.3575 10.4109 14.252 10.6719 14.2518H19.2031C19.2901 14.2518 19.3736 14.2167 19.4351 14.1541C19.4967 14.0916 19.5312 14.0068 19.5312 13.9184V2.58363C19.5312 2.49521 19.4967 2.41042 19.4351 2.3479C19.3736 2.28538 19.2901 2.25026 19.2031 2.25026H2.79688C2.70985 2.25026 2.62639 2.28538 2.56486 2.3479C2.50332 2.41042 2.46875 2.49521 2.46875 2.58363ZM9.39875 4.87726C9.58309 5.06478 9.68663 5.31898 9.68663 5.58401C9.68663 5.84905 9.58309 6.10325 9.39875 6.29077L7.46938 8.25102L9.39875 10.2113C9.57284 10.4008 9.66769 10.6517 9.66328 10.9109C9.65887 11.1701 9.55556 11.4175 9.37512 11.6008C9.19468 11.7841 8.95123 11.8891 8.69609 11.8935C8.44095 11.898 8.19407 11.8017 8.0075 11.6248L5.3825 8.95778C5.19816 8.77025 5.09462 8.51606 5.09462 8.25102C5.09462 7.98599 5.19816 7.73179 5.3825 7.54426L8.0075 4.87726C8.19207 4.68997 8.44226 4.58477 8.70312 4.58477C8.96399 4.58477 9.21418 4.68997 9.39875 4.87726ZM12.6013 4.87726C12.7858 4.68997 13.036 4.58477 13.2969 4.58477C13.5577 4.58477 13.8079 4.68997 13.9925 4.87726L16.6175 7.54426C16.8018 7.73179 16.9054 7.98599 16.9054 8.25102C16.9054 8.51606 16.8018 8.77025 16.6175 8.95778L13.9925 11.6248C13.8059 11.8017 13.5591 11.898 13.3039 11.8935C13.0488 11.8891 12.8053 11.7841 12.6249 11.6008C12.4444 11.4175 12.3411 11.1701 12.3367 10.9109C12.3323 10.6517 12.4272 10.4008 12.6013 10.2113L14.5306 8.25102L12.6013 6.29077C12.4169 6.10325 12.3134 5.84905 12.3134 5.58401C12.3134 5.31898 12.4169 5.06478 12.6013 4.87726Z" fill="#06111C"/>
</svg>
