<svg width="20" height="20" viewBox="0 0 20 20" fill="none" xmlns="http://www.w3.org/2000/svg">
<path d="M6.87747 16.2793C6.12091 16.7357 5.18754 16.0585 5.38666 15.1976L6.07261 12.2322C6.15609 11.8714 6.03326 11.4939 5.7534 11.2513L3.4516 9.2557C2.78407 8.67697 3.14002 7.58027 4.02019 7.50387L7.0665 7.23943C7.43568 7.20738 7.75687 6.97381 7.90113 6.63248L9.07885 3.84592C9.42299 3.03165 10.5769 3.03165 10.9211 3.84592L12.0988 6.63248C12.243 6.97381 12.5642 7.20738 12.9334 7.23943L15.9797 7.50387C16.8599 7.58027 17.2158 8.67697 16.5483 9.2557L14.2465 11.2513C13.9667 11.4939 13.8438 11.8714 13.9273 12.2322L14.6133 15.1976C14.8124 16.0585 13.879 16.7357 13.1224 16.2793L10.5165 14.7073C10.1988 14.5156 9.80112 14.5156 9.48343 14.7073L6.87747 16.2793Z" fill="#FEE500"/>
</svg>
